<svg width="80" height="40" viewBox="0 0 80 40" fill="none" xmlns="http://www.w3.org/2000/svg"><defs><radialGradient id="_3497693515__a" cx="0" cy="0" r="1" gradientTransform="matrix(.21 -.67353 .2545 .07935 .512 1.109)"><stop stop-color="#6420FF"/><stop offset="1" stop-color="#6420FF" stop-opacity="0"/></radialGradient><radialGradient id="_3497693515__b" cx="0" cy="0" r="1" gradientTransform="matrix(.584 .16215 -.3771 1.3582 .024 .666)"><stop offset=".25" stop-color="#00C4CC"/><stop offset="1" stop-color="#00C4CC" stop-opacity="0"/></radialGradient><radialGradient id="_3497693515__c" cx="0" cy="0" r="1" gradientTransform="matrix(.29425 -.739 .3555 .14155 .427 1)"><stop stop-color="#6420FF"/><stop offset="1" stop-color="#6420FF" stop-opacity="0"/></radialGradient><radialGradient id="_3497693515__d" cx="0" cy="0" r="1" gradientTransform="matrix(.3915 -.59869 .4743 .31016 .028 1)"><stop stop-color="#6420FF"/><stop offset="1" stop-color="#6420FF" stop-opacity="0"/></radialGradient><radialGradient id="_3497693515__e" cx="0" cy="0" r="1" gradientTransform="rotate(34.593 -.1 .2) scale(1.03255 2.80688)"><stop stop-color="#00C4CC"/><stop offset="1" stop-color="#00C4CC" stop-opacity="0"/></radialGradient><pattern id="_3497693515__f" width="1" height="1" patternContentUnits="objectBoundingBox"><path fill="#7D2AE7" d="M0 0h1v1H0z"/><path fill="url(#_3497693515__a)" d="M0 0h1v1H0z"/><path fill="url(#_3497693515__b)" d="M0 0h1v1H0z"/><path fill="url(#_3497693515__c)" d="M0 0h1v1H0z"/><path fill="url(#_3497693515__d)" d="M0 0h1v1H0z"/><path fill="url(#_3497693515__e)" d="M0 0h1v1H0z"/></pattern></defs><path fill="url(#_3497693515__f)" d="M79.444 23.096c-.136 0-.26.088-.324.272-.82 2.34-1.928 3.732-2.84 3.732-.524 0-.736-.584-.736-1.5 0-2.292 1.372-7.152 2.064-9.368.08-.268.132-.508.132-.712 0-.644-.352-.96-1.224-.96-.94 0-1.952.368-2.936 2.092-.34-1.52-1.368-2.184-2.804-2.184-1.66 0-3.264 1.068-4.584 2.8-1.32 1.732-2.872 2.3-4.04 2.02.84-2.056 1.152-3.592 1.152-4.732 0-1.788-.884-2.868-2.312-2.868-2.172 0-3.424 2.072-3.424 4.252 0 1.684.764 3.416 2.444 4.256-1.408 3.184-3.464 6.064-4.244 6.064-1.008 0-1.304-4.932-1.248-8.46.036-2.024.204-2.128.204-2.74 0-.352-.228-.592-1.144-.592-2.136 0-2.796 1.808-2.896 3.884a10.233 10.233 0 0 1-.368 2.332c-.892 3.184-2.732 5.6-3.932 5.6-.556 0-.708-.556-.708-1.284 0-2.292 1.284-5.156 1.284-7.6 0-1.796-.788-2.932-2.272-2.932-1.748 0-4.06 2.08-6.248 5.976.72-2.984 1.016-5.872-1.116-5.872a2.886 2.886 0 0 0-1.324.344.752.752 0 0 0-.432.728c.204 3.176-2.56 11.312-5.18 11.312-.476 0-.708-.516-.708-1.348 0-2.296 1.368-7.144 2.056-9.364.088-.288.136-.536.136-.752 0-.608-.376-.92-1.228-.92-.936 0-1.952.356-2.932 2.08-.344-1.52-1.372-2.184-2.808-2.184-2.356 0-4.988 2.492-6.144 5.74-1.548 4.336-4.668 8.524-8.868 8.524-3.812 0-5.824-3.172-5.824-8.184C4.068 13.312 9.38 7.4 13.32 7.4c1.884 0 2.784 1.2 2.784 3.04 0 2.228-1.244 3.264-1.244 4.112 0 .26.216.516.644.516 1.712 0 3.728-2.012 3.728-4.756S17.004 5.56 13.064 5.56C6.552 5.56 0 12.112 0 20.508c0 6.68 3.296 10.708 8.996 10.708 3.888 0 7.284-3.024 9.116-6.552.208 2.924 1.536 4.452 3.56 4.452 1.8 0 3.256-1.072 4.368-2.956.428 1.972 1.564 2.936 3.04 2.936 1.692 0 3.108-1.072 4.456-3.064-.02 1.564.336 3.036 1.692 3.036.64 0 1.404-.148 1.54-.708 1.428-5.904 4.956-10.724 6.036-10.724.32 0 .408.308.408.672 0 1.604-1.132 4.892-1.132 6.992 0 2.268.964 3.768 2.956 3.768 2.208 0 4.452-2.704 5.948-6.656.468 3.692 1.48 6.672 3.064 6.672 1.944 0 5.396-4.092 7.488-8.424.82.104 2.052.076 3.236-.76-.504 1.276-.8 2.672-.8 4.068 0 4.02 1.92 5.148 3.572 5.148 1.796 0 3.252-1.072 4.368-2.956.368 1.7 1.308 2.932 3.036 2.932 2.704 0 5.052-2.764 5.052-5.032 0-.6-.256-.964-.556-.964zM23.32 26.888c-1.092 0-1.52-1.1-1.52-2.74 0-2.848 1.948-7.604 4.008-7.604.9 0 1.24 1.06 1.24 2.356 0 2.892-1.852 7.988-3.728 7.988zm37.404-8.5c-.652-.776-.888-1.832-.888-2.772 0-1.16.424-2.14.932-2.14s.664.5.664 1.196c0 1.164-.416 2.864-.708 3.716zm8.468 8.5c-1.092 0-1.52-1.264-1.52-2.74 0-2.748 1.948-7.604 4.024-7.604.9 0 1.22 1.052 1.22 2.356 0 2.892-1.82 7.988-3.724 7.988zm7.582-18.544c.034.546.376 1.093.922 1.058.58 0 .957-.512.957-1.127 0-2.528-1.093-5.5-3.45-7.173a.324.324 0 0 0-.445.068c-.102.17-.102.376.035.512 1.605 1.708 1.81 3.997 1.981 6.662Zm.342-6.252c.068.376.41.752.888.581.341-.103.546-.444.41-.922-.103-.41-.513-.923-.786-1.196-.137-.137-.342-.205-.512-.102-.205.102-.24.273-.171.478.068.273.136.82.17 1.161ZM69.566 9.3c2.835-1.23 3.621-4.407 3.621-7.14 0-.478-.376-.922-.854-.922-.444 0-.854.41-.854.888-.068 2.426-.41 4.851-2.289 6.627a.31.31 0 0 0-.034.41.329.329 0 0 0 .41.137Zm9.19-7.686c.136.342.546.58.955.342.308-.171.376-.547.171-.957-.205-.376-.683-.751-.99-.922a.466.466 0 0 0-.513 0c-.17.137-.136.307-.068.478.136.273.307.786.444 1.059ZM52.827 5.098c.103 0 .513-.034 1.025-.034.136 1.537.307 3.655.307 3.655a.73.73 0 0 0 .786.683.71.71 0 0 0 .718-.82s-.172-2.083-.308-3.586c.649-.034 1.332-.034 1.844-.069 0 .274 0 .547-.068.82-.102.479-.341.82-.683 1.025-.137.068-.308.24-.171.513.103.239.41.204.547.17 1.298-.478 1.913-1.503 1.98-2.972a.574.574 0 0 0-.614-.614h-.102c-.786.034-1.845.068-2.835.102-.035-.273-.035-.478-.035-.512-.034-.274-.068-.513-.102-.615-.069-.24-.307-.342-.65-.24-.375.103-.82.445-.75.991 0 .069.034.24.034.444-.65.035-1.128.035-1.23.035-.376 0-.444 0-.41.239 0 .41.239.82.717.785Zm-10.93 1.23c.17 0 1.536-.068 3.108-.102.102 1.332.205 2.39.205 2.39.034.479.444.82.922.82a.853.853 0 0 0 .854-.956s-.103-1.025-.205-2.323c1.606-.068 2.972-.102 2.972-.102.273 0 .512-.24.478-.513 0-.273-.24-.512-.513-.478 0 0-1.366.034-3.005.103-.069-.888-.137-1.777-.205-2.528a79.48 79.48 0 0 0 2.425-.103c.273 0 .513-.239.478-.512 0-.273-.239-.512-.512-.478 0 0-1.127.034-2.494.102-.034-.307-.034-.546-.068-.58-.034-.342-.068-.615-.103-.718-.102-.307-.375-.41-.785-.307-.444.102-.957.512-.889 1.161 0 .068.035.273.035.512-1.503.069-2.835.103-2.938.103-.137 0-.137.137-.069.41.069.376.547.615.923.58.136 0 1.093-.034 2.186-.068.068.752.137 1.64.205 2.528-1.947.068-3.757.137-3.86.137-.136 0-.136.136-.068.41.034.273.512.512.922.512ZM60.89 1.716c.546.376 1.23.855 1.913 1.401.41.342 1.161.24 1.469-.341.307-.581-.035-1.196-.718-1.333-.786-.17-1.742-.341-2.494-.341-.17 0-.307.068-.341.205-.069.136.034.307.17.41Zm.034 7.071c.17.479.683.65 1.161.513 3.485-.786 5.397-3.074 6.627-7.003.069-.17-.034-.341-.205-.41-.17-.068-.341.034-.41.171-1.434 3.416-3.381 4.543-6.558 5.397-.513.171-.82.786-.615 1.332Z"/></svg>